# xmcd
#
# Track frame offsets:
#	150
#	17910
#	31433
#	46448
#	58111
#	72669
#	86244
#	103374
#	122034
#	141234
#	157082
#
# Disc length: 2310 seconds
#
# Revision: 1
# Processed by: cddbd v1.5.2PL0 Copyright (c) Steve Scherf et al.
# Submitted via: audiograbber 1.83.01
#
DISCID=ab09040b
DTITLE=Jimmy Buffett - A1A
DYEAR=1974
DGENRE=Crossover
TTITLE0=Makin' Music For Money
TTITLE1=Door Number 3
TTITLE2=Dallas
TTITLE3=Presents To Send You
TTITLE4=Stories We Could Tell
TTITLE5=Life Is Just A Tire Swing
TTITLE6=A Pirate Looks At Forty
TTITLE7=Migration
TTITLE8=Trying To Reason With Hurricane Seasons
TTITLE9=Nautical Wheelers
TTITLE10=Tin Cup Chalice
EXTD=
EXTT0=
EXTT1=
EXTT2=
EXTT3=
EXTT4=
EXTT5=
EXTT6=
EXTT7=
EXTT8=
EXTT9=
EXTT10=
PLAYORDER=
